<?xml version="1.0" encoding="UTF-8" standalone="no"?>
<!-- Created with Inkscape (http://www.inkscape.org/) -->

<svg
   xmlns:dc="http://purl.org/dc/elements/1.1/"
   xmlns:cc="http://creativecommons.org/ns#"
   xmlns:rdf="http://www.w3.org/1999/02/22-rdf-syntax-ns#"
   xmlns:svg="http://www.w3.org/2000/svg"
   xmlns="http://www.w3.org/2000/svg"
   xmlns:sodipodi="http://sodipodi.sourceforge.net/DTD/sodipodi-0.dtd"
   xmlns:inkscape="http://www.inkscape.org/namespaces/inkscape"
   width="128mm"
   height="128mm"
   viewBox="0 0 128 128"
   version="1.1"
   id="svg8"
   inkscape:version="0.92.4 (5da689c313, 2019-01-14)"
   sodipodi:docname="404.svg"
   inkscape:export-filename="/home/max/Documents/Blue Skies/Altitude Perspectives/Logo/Logo.gh.png"
   inkscape:export-xdpi="99.21875"
   inkscape:export-ydpi="99.21875">
  <defs
     id="defs2">
    <inkscape:path-effect
       effect="ellipse_5pts"
       id="path-effect1166"
       is_visible="true" />
    <inkscape:path-effect
       effect="ellipse_5pts"
       id="path-effect1164"
       is_visible="true" />
    <inkscape:path-effect
       effect="ellipse_5pts"
       id="path-effect1154"
       is_visible="true" />
  </defs>
  <sodipodi:namedview
     id="base"
     pagecolor="#000000"
     bordercolor="#666666"
     borderopacity="1.0"
     inkscape:pageopacity="0"
     inkscape:pageshadow="2"
     inkscape:zoom="1"
     inkscape:cx="305.47511"
     inkscape:cy="106.16"
     inkscape:document-units="mm"
     inkscape:current-layer="layer1"
     showgrid="false"
     inkscape:window-width="1890"
     inkscape:window-height="1051"
     inkscape:window-x="30"
     inkscape:window-y="0"
     inkscape:window-maximized="1"
     showguides="false"
     inkscape:pagecheckerboard="true">
    <inkscape:grid
       type="xygrid"
       id="grid10"
       units="mm"
       spacingx="1"
       spacingy="1"
       empspacing="8"
       color="#4444ff"
       opacity="0.26666667"
       empcolor="#ff00ff"
       empopacity="0.26666667" />
    <sodipodi:guide
       position="63.999998,62.000002"
       orientation="60.472441,120.94488"
       id="guide878"
       inkscape:locked="false" />
    <sodipodi:guide
       position="95.999997,46.000002"
       orientation="-49.133858,-120.94488"
       id="guide880"
       inkscape:locked="false" />
    <sodipodi:guide
       position="63.999998,59.000002"
       orientation="49.133858,-120.94488"
       id="guide882"
       inkscape:locked="false" />
    <sodipodi:guide
       position="31.999999,46.000002"
       orientation="-60.472441,120.94488"
       id="guide884"
       inkscape:locked="false" />
    <sodipodi:guide
       position="-7.9999996,40.000002"
       orientation="-90.708661,181.41732"
       id="guide888"
       inkscape:locked="false" />
    <sodipodi:guide
       position="39.999998,64.000002"
       orientation="90.708661,181.41733"
       id="guide890"
       inkscape:locked="false" />
    <sodipodi:guide
       position="87.999998,40.000002"
       orientation="-75.590551,-181.41733"
       id="guide892"
       inkscape:locked="false" />
    <sodipodi:guide
       position="39.999998,60.000002"
       orientation="75.590551,-181.41732"
       id="guide894"
       inkscape:locked="false" />
  </sodipodi:namedview>
  <metadata
     id="metadata5">
    <rdf:RDF>
      <cc:Work
         rdf:about="">
        <dc:format>image/svg+xml</dc:format>
        <dc:type
           rdf:resource="http://purl.org/dc/dcmitype/StillImage" />
        <dc:title />
      </cc:Work>
    </rdf:RDF>
  </metadata>
  <g
     inkscape:label="Layer 1"
     inkscape:groupmode="layer"
     id="layer1"
     transform="translate(0,-169)">
    <circle
       style="opacity:1;fill:#578fb0;fill-opacity:1;stroke:#000000;stroke-width:3;stroke-miterlimit:4;stroke-dasharray:none;stroke-opacity:1"
       id="path12"
       cx="64"
       cy="232.99998"
       r="62.453022" />
    <path
       style="fill:#000000;fill-opacity:1;stroke:none;stroke-width:0.26458332px;stroke-linecap:butt;stroke-linejoin:miter;stroke-opacity:1"
       d="m 124,244 -45.230761,0 4.923077,2 L 124,246 Z"
       id="path826"
       inkscape:connector-curvature="0"
       sodipodi:nodetypes="ccccc" />
    <path
       sodipodi:nodetypes="cccccc"
       style="fill:#000000;fill-opacity:1;stroke:none;stroke-width:0.26458332px;stroke-linecap:butt;stroke-linejoin:miter;stroke-opacity:1"
       d="m 64,235 32,16 -32,-13 -10.93671,4.44303 -2.1542,-0.89758 z"
       id="path871"
       inkscape:connector-curvature="0" />
    <path
       inkscape:connector-curvature="0"
       style="fill:#000000;fill-opacity:1;stroke:none;stroke-width:0.05107914;stroke-linejoin:round;stroke-opacity:1"
       d="m 57.616021,200.8555 c -0.287566,0.48808 -0.904157,3.52665 -0.904157,3.52665 l -0.392241,0.62564 c -0.09923,0.16389 -0.190469,0.34387 -0.161316,0.54296 0.03141,0.21631 0.163776,0.25109 0.137788,0.50858 0,0 -2.159239,9.37632 -2.261617,9.60268 -0.05786,0.12879 -2.639184,3.01781 -2.639184,3.01781 l -0.369697,0.54318 -0.05895,0.15274 -0.205535,1.00195 c -0.0093,0.13147 -0.01521,0.30381 0.120562,0.37512 0.28533,0.1494 0.881982,-0.18537 1.206093,-0.15218 0.276546,0.0287 0.377959,0.27824 0.690698,0.23408 l -0.193736,0.65492 -1.597263,1.73198 -1.855722,1.99567 -0.896883,1.5462 c -0.376569,0.66023 -0.538205,1.43484 -0.497727,2.19017 0,0 0.250176,0.5796 0.05768,1.09485 l -1.107239,2.84073 c -0.158002,0.56583 -0.192284,1.1586 0.220938,1.48388 0.285344,0.20249 0.571861,0.18874 0.790881,0.16184 l -1.538399,3.7715 c -0.182763,0.38816 -0.574811,0.53192 -0.813918,1.24025 -0.121656,0.36091 0.03784,0.47303 0.0045,0.71566 L 44.1803,243.1789 c -0.03972,0.1782 -0.142855,0.5112 0.05799,0.62303 0.148945,0.0832 0.329314,-0.009 0.455755,-0.0907 0.365806,-0.23824 0.424602,-0.38348 0.708936,-0.65224 0.290194,-0.27481 2.355145,-2.70981 2.355145,-2.70981 l 3.07673,-7.48396 c 0.149007,-0.28968 0.380566,-0.39456 0.638087,-0.57499 0,0 0.737696,0.40052 0.753007,0.5344 l 0.06572,0.33988 c 0.297673,0.49271 0.562669,0.76504 1.167915,0.79244 0.571236,0.026 1.133371,-0.40645 0.931777,-1.02064 -0.135457,-0.41204 -0.675632,-0.71646 -1.089201,-0.74998 -0.130467,-0.011 -0.18246,-0.0219 -0.419166,0.0367 -0.183393,-0.11652 -0.430438,-0.11126 -0.535581,-0.018 -0.128029,-0.0479 -0.236742,-0.0872 -0.410487,-0.23883 0.170133,-0.16188 1.546008,-1.4644 1.546008,-1.4644 L 56.876,226.91617 c 0.258833,0.12173 0.577851,0.16848 0.796035,0.35756 0.137904,0.11972 0.365075,0.54693 0.466027,0.72554 0.0689,0.12176 0.266111,0.45412 0.261169,0.5822 -0.0076,0.19912 -0.291263,0.23457 -0.509998,0.5123 -0.242082,0.3079 -0.189487,0.77289 0.06959,1.05459 0.09861,0.10707 0.25009,0.19448 0.377702,0.26461 0.420802,0.22938 1.003482,0.25369 1.416838,-0.007 0.607898,-0.38275 0.582727,-1.12801 -0.02273,-1.48818 -0.250344,-0.1487 -0.331481,-0.20535 -0.626237,-0.24342 0.07908,-0.60077 -0.562892,-1.4183 -0.485642,-2.04962 l 0.437592,-1.2809 c 0.09951,-0.27755 0.349676,-1.04323 0.498008,-1.24601 l 0.314543,-0.34947 c 0.311855,-0.36435 0.799216,-0.94831 0.986949,-1.37665 0.294397,0.30327 0.796608,0.46267 1.208397,0.33786 0.603974,-0.1839 0.82547,-0.85107 0.516765,-1.38496 -0.115499,-0.19939 -0.258915,-0.32577 -0.444987,-0.45502 0.106243,-0.18402 3.560015,-5.55325 3.560015,-5.55325 l 1.705241,-2.80577 c 0.111875,-0.20377 1.495976,-3.00426 1.625826,-3.29557 -0.191551,-0.1218 -3.103977,-2.2605 -3.103977,-2.2605 l 1.72653,-5.09677 -0.274832,0.1546 c -0.793986,0.57022 -1.484185,1.05315 -2.003156,1.92548 l -0.705213,2.03278 -4.330428,-3.20787 -0.350297,0.17368 c 0,0 0.903114,-3.89646 0.998314,-4.28918 -0.413094,0.0729 -1.149746,0.3259 -1.467912,0.47958 -0.585143,0.28206 -1.293999,0.78074 -1.900107,1.72839 z m 1.474615,5.84642 c 0,0 3.661968,4.73193 3.689438,4.89584 0.0214,0.13149 -0.537711,1.784 -0.537711,1.784 -0.09879,0.14762 -5.597237,4.4051 -5.597237,4.4051 l 1.670555,-6.8488 -0.253256,0.0304 c 0,0 1.026845,-4.26619 1.028211,-4.26655 z"
       id="path1176" />
    <path
       sodipodi:nodetypes="cccccc"
       d="M 38.524618,157.95929 C 34.602097,172.55292 23.031233,182.12803 12.68037,179.34589 2.3295066,176.56375 -2.8816941,162.47791 1.0408271,147.88428 4.9633484,133.29065 16.534213,123.71555 26.885076,126.49768 c 10.350863,2.78214 15.562063,16.86798 11.639542,31.46161"
       id="path1152"
       inkscape:connector-curvature="0"
       style="fill:none;fill-opacity:1;stroke:none;stroke-width:2.07194495;stroke-linejoin:round;stroke-miterlimit:4;stroke-dasharray:none;stroke-opacity:1"
       inkscape:path-effect="#path-effect1166"
       inkscape:original-d="m 25.71852,126.23781 7.42949,43.32458 -11.57109,9.33096 L 0.38559041,164.09434 2.6327804,143.19229 Z"
       transform="matrix(0.07239575,-0.12539311,0.12539311,0.07239575,30.803165,211.5513)" />
    <path
       sodipodi:nodetypes="cccccc"
       d="m -48.506323,176.77005 c -4.005752,14.47443 -15.397313,23.95437 -25.443763,21.17405 -10.046451,-2.78032 -14.943404,-16.76806 -10.937652,-31.24249 4.005752,-14.47443 15.397313,-23.95438 25.443764,-21.17406 10.04645,2.78033 14.943403,16.76807 10.937651,31.2425"
       id="path1158"
       inkscape:connector-curvature="0"
       style="fill:none;fill-opacity:1;stroke:#000000;stroke-width:2.07194495;stroke-linejoin:round;stroke-miterlimit:4;stroke-dasharray:none;stroke-opacity:1"
       inkscape:path-effect="#path-effect1164"
       inkscape:original-d="m -62.479317,145.05848 12.220207,8.20913 -11.031347,42.26977 -24.419242,-12.63648 2.257775,-20.42933 z"
       transform="matrix(0.07239575,-0.12539311,0.12539311,0.07239575,30.803165,211.5513)" />
    <path
       style="fill:#578fb0;fill-opacity:1;stroke:none;stroke-width:0.26458332px;stroke-linecap:butt;stroke-linejoin:miter;stroke-opacity:1"
       d="M 40,237 50.90909,241.54545 40,247 Z"
       id="path839"
       inkscape:connector-curvature="0"
       sodipodi:nodetypes="cccc" />
    <path
       inkscape:connector-curvature="0"
       id="path886"
       d="M 3.9999938,251 40,233 88.000001,257 40,237 4,252"
       style="fill:#000000;fill-opacity:1;stroke:none;stroke-width:0.26458332px;stroke-linecap:butt;stroke-linejoin:miter;stroke-opacity:1"
       sodipodi:nodetypes="ccccc" />
  </g>
</svg>
