<?xml version="1.0" encoding="UTF-8" standalone="no"?>
<!-- Created with Inkscape (http://www.inkscape.org/) -->

<svg
   xmlns:dc="http://purl.org/dc/elements/1.1/"
   xmlns:cc="http://creativecommons.org/ns#"
   xmlns:rdf="http://www.w3.org/1999/02/22-rdf-syntax-ns#"
   xmlns:svg="http://www.w3.org/2000/svg"
   xmlns="http://www.w3.org/2000/svg"
   xmlns:sodipodi="http://sodipodi.sourceforge.net/DTD/sodipodi-0.dtd"
   xmlns:inkscape="http://www.inkscape.org/namespaces/inkscape"
   width="128mm"
   height="128mm"
   viewBox="0 0 128 128"
   version="1.1"
   id="svg8"
   inkscape:version="0.92.4 (5da689c313, 2019-01-14)"
   sodipodi:docname="404.svg"
   inkscape:export-filename="/home/max/Documents/Blue Skies/Altitude Perspectives/Logo/Logo.gh.png"
   inkscape:export-xdpi="99.21875"
   inkscape:export-ydpi="99.21875">
  <defs
     id="defs2">
    <inkscape:path-effect
       effect="ellipse_5pts"
       id="path-effect1166"
       is_visible="true" />
    <inkscape:path-effect
       effect="ellipse_5pts"
       id="path-effect1164"
       is_visible="true" />
    <inkscape:path-effect
       effect="ellipse_5pts"
       id="path-effect1154"
       is_visible="true" />
  </defs>
  <sodipodi:namedview
     id="base"
     pagecolor="#000000"
     bordercolor="#666666"
     borderopacity="1.0"
     inkscape:pageopacity="0"
     inkscape:pageshadow="2"
     inkscape:zoom="5.6568544"
     inkscape:cx="218.28219"
     inkscape:cy="236.27848"
     inkscape:document-units="mm"
     inkscape:current-layer="layer1"
     showgrid="false"
     inkscape:window-width="1890"
     inkscape:window-height="1051"
     inkscape:window-x="30"
     inkscape:window-y="0"
     inkscape:window-maximized="1"
     showguides="false"
     inkscape:pagecheckerboard="true">
    <inkscape:grid
       type="xygrid"
       id="grid10"
       units="mm"
       spacingx="1"
       spacingy="1"
       empspacing="8"
       color="#4444ff"
       opacity="0.26666667"
       empcolor="#ff00ff"
       empopacity="0.26666667" />
    <sodipodi:guide
       position="63.999998,62.000002"
       orientation="60.472441,120.94488"
       id="guide878"
       inkscape:locked="false" />
    <sodipodi:guide
       position="95.999997,46.000002"
       orientation="-49.133858,-120.94488"
       id="guide880"
       inkscape:locked="false" />
    <sodipodi:guide
       position="63.999998,59.000002"
       orientation="49.133858,-120.94488"
       id="guide882"
       inkscape:locked="false" />
    <sodipodi:guide
       position="31.999999,46.000002"
       orientation="-60.472441,120.94488"
       id="guide884"
       inkscape:locked="false" />
    <sodipodi:guide
       position="-7.9999996,40.000002"
       orientation="-90.708661,181.41732"
       id="guide888"
       inkscape:locked="false" />
    <sodipodi:guide
       position="39.999998,64.000002"
       orientation="90.708661,181.41733"
       id="guide890"
       inkscape:locked="false" />
    <sodipodi:guide
       position="87.999998,40.000002"
       orientation="-75.590551,-181.41733"
       id="guide892"
       inkscape:locked="false" />
    <sodipodi:guide
       position="39.999998,60.000002"
       orientation="75.590551,-181.41732"
       id="guide894"
       inkscape:locked="false" />
  </sodipodi:namedview>
  <metadata
     id="metadata5">
    <rdf:RDF>
      <cc:Work
         rdf:about="">
        <dc:format>image/svg+xml</dc:format>
        <dc:type
           rdf:resource="http://purl.org/dc/dcmitype/StillImage" />
        <dc:title />
      </cc:Work>
    </rdf:RDF>
  </metadata>
  <g
     inkscape:label="Layer 1"
     inkscape:groupmode="layer"
     id="layer1"
     transform="translate(0,-169)">
    <circle
       style="opacity:1;fill:#578fb0;fill-opacity:1;stroke:#000000;stroke-width:3;stroke-miterlimit:4;stroke-dasharray:none;stroke-opacity:0.98425197"
       id="path12"
       cx="64"
       cy="232.99998"
       r="62.453022" />
    <path
       style="fill:#000000;fill-opacity:1;stroke:none;stroke-width:0.26458332px;stroke-linecap:butt;stroke-linejoin:miter;stroke-opacity:1"
       d="M 125,244 H 80.999998 L 85,246 l 40,0 z"
       id="path826"
       inkscape:connector-curvature="0"
       sodipodi:nodetypes="ccccc" />
    <path
       sodipodi:nodetypes="cccccc"
       style="fill:#000000;fill-opacity:1;stroke:none;stroke-width:0.26458332px;stroke-linecap:butt;stroke-linejoin:miter;stroke-opacity:1"
       d="M 64,235 96,251 64,238 55,241.65625 52,241 Z"
       id="path871"
       inkscape:connector-curvature="0" />
    <g
       id="g837"
       transform="rotate(-60,78.190563,234.4389)">
      <path
         id="path1176"
         transform="matrix(0.26458333,0,0,0.26458333,0,169)"
         d="m 366.56641,116.51953 c -2.14099,-0.0189 -13.25196,3.70508 -13.25196,3.70508 l -2.78906,-0.10156 c -0.72395,-0.0151 -1.48549,0.0264 -2.08203,0.49804 -0.64867,0.5116 -0.51238,1.01058 -1.4043,1.41211 0,0 -34.77069,10.65147 -35.70508,10.74414 -0.53089,0.054 -14.86523,-2.93554 -14.86523,-2.93554 l -2.47656,-0.1836 -0.61133,0.0957 -3.66797,1.2207 c -0.44788,0.21808 -1.02316,0.52434 -1,1.10351 0.0502,1.21626 2.27347,2.53658 2.77734,3.66016 0.42858,0.95947 -0.19647,1.76293 0.53907,2.70313 l -2.50977,0.60351 -8.6875,-1.95508 -10.03906,-2.30273 -6.75586,-0.0137 c -2.87266,0.0151 -5.71356,0.94988 -8.10938,2.50976 0,0 -1.42436,1.91418 -3.47461,2.25782 l -11.39062,1.74414 c -2.15063,0.55211 -4.15566,1.5601 -4.43945,3.52734 -0.12356,1.31664 0.4629,2.22847 0.96484,2.89453 l -15.25195,2.0918 c -1.61588,0.13531 -2.82732,-0.87625 -5.59766,-0.32031 -1.41123,0.28384 -1.47682,1.01777 -2.33398,1.36718 l -11.75977,1.67774 c -0.65832,0.20674 -1.94321,0.49846 -1.92969,1.36718 0.009,0.64483 0.65047,1.06165 1.15821,1.32032 1.47108,0.74713 2.05759,0.66511 3.47461,1.08789 1.44791,0.43052 13.32031,2.58789 13.32031,2.58789 l 30.31055,-4.07227 c 1.22976,-0.0597 2.01064,0.50003 3.08789,1.00196 0,0 0.0831,3.17149 -0.32618,3.47461 l -0.98828,0.85742 c -1.05021,1.90545 -1.44079,3.28745 -0.38672,5.32031 0.99424,1.91898 3.47218,2.94162 5.10157,1.12109 1.09269,-1.22203 1.06832,-3.5654 0.39648,-4.98242 -0.21041,-0.44791 -0.27309,-0.63863 -0.91211,-1.30273 0.0348,-0.82046 -0.44925,-1.61915 -0.95312,-1.78711 -0.085,-0.50967 -0.16195,-0.93969 0.006,-1.79492 0.85137,0.25096 7.71484,2.29296 7.71484,2.29296 l 18.14844,4.33008 c 0.0907,1.07724 0.54054,2.20979 0.33398,3.28125 -0.13126,0.67763 -1.1003,2.22853 -1.49414,2.89649 -0.26835,0.45562 -0.98353,1.72921 -1.41211,1.95508 -0.66604,0.35149 -1.31819,-0.51008 -2.64062,-0.70118 -1.46528,-0.21052 -2.88787,0.84035 -3.32032,2.22071 -0.1641,0.52509 -0.16394,1.1861 -0.15234,1.73633 0.0444,1.81084 1.06597,3.76398 2.69922,4.625 2.4016,1.26644 4.79338,-0.22431 4.82812,-2.88672 0.0136,-1.10041 0.0457,-1.47304 -0.38671,-2.50977 2.11588,-0.87647 3.5786,-4.52269 5.79101,-5.46289 l 5.01953,-0.98828 c 1.09655,-0.1988 4.07549,-0.82692 5.01953,-0.72461 l 1.73828,0.36914 c 1.78191,0.33222 4.6143,0.82389 6.3711,0.62891 -0.4363,1.53671 -0.009,3.48177 1.17773,4.59375 1.74329,1.62939 4.34564,1.09358 5.50977,-0.92579 0.43436,-0.75484 0.57701,-1.4631 0.64844,-2.3164 0.8031,0 24.90429,1.1582 24.90429,1.1582 l 12.40625,0.2793 c 0.8784,-0.0189 12.6605,-0.78077 13.85938,-0.90625 0.0367,-0.85716 1.5332,-14.43164 1.5332,-14.43164 l 19.94531,-3.98047 -1.02539,-0.60742 c -3.36688,-1.52126 -6.25189,-2.86778 -10.08789,-2.91797 l -7.98633,1.5332 2.31641,-20.23633 -1.23047,-0.81836 c 0,0 14.46046,-4.40736 15.92578,-4.83789 -1.01934,-1.21432 -3.23947,-3.14744 -4.34375,-3.89843 -2.029,-1.38225 -5.00083,-2.76007 -9.24804,-2.95313 z m -16.34961,15.875 c 0,0 -8.56817,20.92848 -9.05274,21.32813 -0.38997,0.31853 -6.85547,1.61132 -6.85547,1.61132 -0.6699,-0.0444 -24.99609,-9.99609 -24.99609,-9.99609 l 25.57422,-7.47461 -0.57813,-0.77148 c 0,0 15.90443,-4.70105 15.90821,-4.69727 z"
         style="fill:#000000;fill-opacity:1;stroke:#040000;stroke-width:0.19305502;stroke-linejoin:round;stroke-opacity:1"
         inkscape:connector-curvature="0" />
      <path
         transform="matrix(0.14479149,0,0,0.14479149,74.318107,181.95641)"
         inkscape:original-d="m 25.71852,126.23781 7.42949,43.32458 -11.57109,9.33096 L 0.38559041,164.09434 2.6327804,143.19229 Z"
         inkscape:path-effect="#path-effect1166"
         style="fill:none;fill-opacity:1;stroke:none;stroke-width:2.07194495;stroke-linejoin:round;stroke-miterlimit:4;stroke-dasharray:none;stroke-opacity:1"
         inkscape:connector-curvature="0"
         id="path1152"
         d="M 38.524618,157.95929 C 34.602097,172.55292 23.031233,182.12803 12.68037,179.34589 2.3295066,176.56375 -2.8816941,162.47791 1.0408271,147.88428 4.9633484,133.29065 16.534213,123.71555 26.885076,126.49768 c 10.350863,2.78214 15.562063,16.86798 11.639542,31.46161"
         sodipodi:nodetypes="cccccc" />
      <path
         transform="matrix(0.14479149,0,0,0.14479149,74.318107,181.95641)"
         inkscape:original-d="m -62.479317,145.05848 12.220207,8.20913 -11.031347,42.26977 -24.419242,-12.63648 2.257775,-20.42933 z"
         inkscape:path-effect="#path-effect1164"
         style="fill:none;fill-opacity:1;stroke:#000001;stroke-width:2.07194495;stroke-linejoin:round;stroke-miterlimit:4;stroke-dasharray:none;stroke-opacity:1"
         inkscape:connector-curvature="0"
         id="path1158"
         d="m -48.506323,176.77005 c -4.005752,14.47443 -15.397313,23.95437 -25.443763,21.17405 -10.046451,-2.78032 -14.943404,-16.76806 -10.937652,-31.24249 4.005752,-14.47443 15.397313,-23.95438 25.443764,-21.17406 10.04645,2.78033 14.943403,16.76807 10.937651,31.2425"
         sodipodi:nodetypes="cccccc" />
    </g>
    <path
       style="fill:#578fb0;fill-opacity:1;stroke:none;stroke-width:0.26458332px;stroke-linecap:butt;stroke-linejoin:miter;stroke-opacity:1"
       d="m 39.895993,235.42115 22.189642,9.63492 -33.868985,7.18135 z"
       id="path839"
       inkscape:connector-curvature="0"
       sodipodi:nodetypes="cccc" />
    <path
       inkscape:connector-curvature="0"
       id="path886"
       d="M 3.9999938,251 40,233 88.000001,257 40,237 4,252"
       style="fill:#000000;fill-opacity:1;stroke:none;stroke-width:0.26458332px;stroke-linecap:butt;stroke-linejoin:miter;stroke-opacity:1"
       sodipodi:nodetypes="ccccc" />
  </g>
</svg>
